<svg xmlns="http://www.w3.org/2000/svg" width="14" height="18" viewBox="0 0 14 18" fill="none">
<path d="M9.927 9.70458L12.997 8.6008C13.6028 8.38302 14 7.85566 14 7.26917C14 6.23959 12.8288 5.54542 11.7759 5.951L7.7878 7.48723C7.2847 7.68111 6.7153 7.68111 6.2122 7.48723L2.2241 5.951C1.17123 5.54542 0 6.23959 0 7.26917C0 7.85566 0.39722 8.38302 1.00299 8.6008L4.07299 9.70458C4.63287 9.90583 5 10.3933 5 10.9353C5 11.2277 4.89248 11.5118 4.69418 11.7435L1.95702 14.9419C1.15752 15.876 1.89847 17.2286 3.20976 17.2286C3.70723 17.2286 4.17566 17.0181 4.47415 16.6604L7 13.6332L9.5259 16.6604C9.8243 17.0181 10.2928 17.2286 10.7902 17.2286C12.1015 17.2286 12.8425 15.876 12.043 14.9419L9.3058 11.7435C9.1075 11.5118 9 11.2277 9 10.9353C9 10.3933 9.3671 9.90583 9.927 9.70458Z" fill="white"/>
<path d="M9.5 2.84708C9.5 4.08812 8.3807 5.09418 7 5.09418C5.6193 5.09418 4.5 4.08812 4.5 2.84708C4.5 1.60604 5.6193 0.599976 7 0.599976C8.3807 0.599976 9.5 1.60604 9.5 2.84708Z" fill="white"/>
</svg>