<svg xmlns="http://www.w3.org/2000/svg" width="25" height="22" viewBox="0 0 25 22" fill="none">
<path fill-rule="evenodd" clip-rule="evenodd" d="M7.52622 3C5.28723 3 3.47217 4.56083 3.47217 6.48621V12.5871C3.47217 14.5124 5.28723 16.0733 7.52622 16.0733H8.79311C9.35286 16.0733 9.80663 16.4635 9.80663 16.9448V18.1634C9.80663 18.5378 10.3194 18.7379 10.6471 18.4913L13.0009 16.7202C13.5552 16.3032 14.2666 16.0733 15.0031 16.0733H18.1681C20.4071 16.0733 22.2222 14.5124 22.2222 12.5871V6.48621C22.2222 4.56083 20.4071 3 18.1681 3H7.52622ZM6.76609 9.31876C6.34628 9.31876 6.00595 9.61142 6.00595 9.97242C6.00595 10.3334 6.34628 10.6261 6.76609 10.6261H9.80663C10.2264 10.6261 10.5668 10.3334 10.5668 9.97242C10.5668 9.61142 10.2264 9.31876 9.80663 9.31876H6.76609ZM12.8472 9.31876C12.4274 9.31876 12.087 9.61142 12.087 9.97242C12.087 10.3334 12.4274 10.6261 12.8472 10.6261H18.9282C19.348 10.6261 19.6884 10.3334 19.6884 9.97242C19.6884 9.61142 19.348 9.31876 18.9282 9.31876H12.8472ZM6.00595 12.5871C6.00595 12.2261 6.34628 11.9334 6.76609 11.9334H12.8472C13.267 11.9334 13.6073 12.2261 13.6073 12.5871C13.6073 12.9481 13.267 13.2407 12.8472 13.2407H6.76609C6.34628 13.2407 6.00595 12.9481 6.00595 12.5871ZM15.8877 11.9334C15.4679 11.9334 15.1276 12.2261 15.1276 12.5871C15.1276 12.9481 15.4679 13.2407 15.8877 13.2407H18.9282C19.348 13.2407 19.6884 12.9481 19.6884 12.5871C19.6884 12.2261 19.348 11.9334 18.9282 11.9334H15.8877Z" fill="white"/>
</svg>