<svg xmlns="http://www.w3.org/2000/svg" width="24" height="24" viewBox="0 0 24 24" fill="none">
<path d="M6.16939 10.4468C6.36649 7.22112 8.76822 4.25 11.9999 4.25C15.2316 4.25 17.6333 7.22113 17.8304 10.4468C17.9201 11.9137 18.157 13.3205 18.8879 14.6078C19.6659 15.978 18.9663 17.8516 17.4014 18.036C15.6015 18.248 13.4942 18.45 11.9999 18.45C10.5057 18.45 8.3983 18.248 6.59839 18.036C5.03357 17.8516 4.3339 15.978 5.11191 14.6078C5.84287 13.3205 6.07975 11.9137 6.16939 10.4468Z" fill="white"/>
<path d="M12 21.25C13.1046 21.25 14 20.3546 14 19.25C14 19.25 12.7871 19.5 12 19.5C11.2129 19.5 10 19.25 10 19.25C10 20.3546 10.8954 21.25 12 21.25Z" fill="white"/>
<path d="M12 2.75C11.4477 2.75 11 3.19772 11 3.75C11 3.88096 11.0252 4.00603 11.0709 4.12066C11.0709 4.12066 11.6341 4 12 4C12.3659 4 12.9291 4.12066 12.9291 4.12066C12.9748 4.00603 13 3.88096 13 3.75C13 3.19772 12.5523 2.75 12 2.75Z" fill="white"/>
</svg>